<svg width="24" height="24" viewBox="0 0 24 24" fill="none" xmlns="http://www.w3.org/2000/svg">
<path d="M2.5 6.52734C2.5 5.97506 2.94772 5.52734 3.5 5.52734H20.5C21.0523 5.52734 21.5 5.97506 21.5 6.52734V17.5222C21.5 18.0745 21.0523 18.5222 20.5 18.5222H3.5C2.94771 18.5222 2.5 18.0745 2.5 17.5222V6.52734Z" stroke="#212121" stroke-width="1.4"/>
<path d="M7.59082 15.0732C7.06348 15.0732 6.611 14.9902 6.2334 14.8242C5.85905 14.6582 5.57259 14.4189 5.37402 14.1064C5.17546 13.7907 5.07617 13.4115 5.07617 12.9688V9.18457C5.07617 9.09017 5.11849 9.02018 5.20312 8.97461C5.28776 8.92578 5.4196 8.90137 5.59863 8.90137H5.8916C6.07064 8.90137 6.20085 8.92578 6.28223 8.97461C6.36686 9.02018 6.40918 9.09017 6.40918 9.18457V12.8809C6.40918 13.0827 6.45801 13.2633 6.55566 13.4229C6.65658 13.5824 6.79655 13.7077 6.97559 13.7988C7.15462 13.8867 7.3597 13.9307 7.59082 13.9307C7.82194 13.9307 8.02702 13.8867 8.20605 13.7988C8.38835 13.7077 8.52995 13.5824 8.63086 13.4229C8.73177 13.2633 8.78223 13.0827 8.78223 12.8809V9.18457C8.78223 9.09017 8.82292 9.02018 8.9043 8.97461C8.98893 8.92578 9.12077 8.90137 9.2998 8.90137H9.58789C9.76693 8.90137 9.89714 8.92578 9.97852 8.97461C10.0632 9.02018 10.1055 9.09017 10.1055 9.18457V12.9688C10.1055 13.4115 10.0062 13.7907 9.80762 14.1064C9.60905 14.4189 9.32096 14.6582 8.94336 14.8242C8.56901 14.9902 8.11816 15.0732 7.59082 15.0732ZM12.3047 15.0146C11.9564 15.0146 11.7822 14.9235 11.7822 14.7412V9.26758C11.7822 9.14714 11.8099 9.06087 11.8652 9.00879C11.9206 8.95345 12.0085 8.92578 12.1289 8.92578H13.9551C14.4954 8.92578 14.974 9.05762 15.3906 9.32129C15.8073 9.58496 16.0156 10.0863 16.0156 10.8252C16.0156 11.333 15.8952 11.7285 15.6543 12.0117C15.4134 12.2917 15.1416 12.4805 14.8389 12.5781C14.5394 12.6758 14.2725 12.7246 14.0381 12.7246H13.1201V14.7412C13.1201 14.9235 12.946 15.0146 12.5977 15.0146H12.3047ZM13.8916 11.5771C14.0999 11.5771 14.2773 11.5218 14.4238 11.4111C14.5736 11.3005 14.6484 11.1051 14.6484 10.8252C14.6484 10.542 14.5736 10.3434 14.4238 10.2295C14.2741 10.1156 14.0967 10.0586 13.8916 10.0586H13.1201V11.5771H13.8916ZM17.7021 15.0244C17.5264 15.0244 17.3945 15 17.3066 14.9512C17.222 14.9023 17.1797 14.8324 17.1797 14.7412V9.18457C17.1797 8.99251 17.3538 8.89648 17.7021 8.89648H18.0049C18.1839 8.89648 18.3141 8.9209 18.3955 8.96973C18.4801 9.01855 18.5225 9.09017 18.5225 9.18457V14.7412C18.5225 14.93 18.3499 15.0244 18.0049 15.0244H17.7021Z" fill="#212121"/>
</svg>
